<svg xmlns="http://www.w3.org/2000/svg" width="15.001" height="15.001" viewBox="0 0 15.001 15.001">
  <g id="box" transform="translate(-107.999 -188)">
    <path id="Vector" d="M11.3,3.244,5.65,6.513,0,3.244A2.745,2.745,0,0,1,1.019,2.15L4.356.3A2.94,2.94,0,0,1,6.944.3l3.338,1.85A2.745,2.745,0,0,1,11.3,3.244Z" transform="translate(109.85 189.25)" fill="#BBBDF3" opacity="0.4"/>
    <path id="Vector-2" data-name="Vector" d="M6.007,3.269V9.257a2.707,2.707,0,0,1-1.294-.3L1.375,7.107A2.949,2.949,0,0,1,0,4.775V1.238A2.666,2.666,0,0,1,.356,0Z" transform="translate(109.494 192.494)" fill="#292d32" opacity="0.6"/>
    <path id="Vector-3" data-name="Vector" d="M6.007,1.238V4.775A2.949,2.949,0,0,1,4.631,7.107L1.294,8.957A2.707,2.707,0,0,1,0,9.257V3.269L5.65,0A2.666,2.666,0,0,1,6.007,1.238Z" transform="translate(115.5 192.494)" fill="#292d32" opacity="0.5"/>
    <path id="Vector-4" data-name="Vector" d="M0,0H15V15H0Z" transform="translate(107.999 188)" fill="none" opacity="0"/>
  </g>
</svg>
